<mxfile host="app.diagrams.net" modified="2022-04-23T09:20:08.656Z" agent="5.0 (Windows NT 10.0; Win64; x64) AppleWebKit/537.36 (KHTML, like Gecko) Chrome/100.0.4896.127 Safari/537.36" etag="9Z-1mt-ydMg9ofzh--ti" version="17.4.6" type="github">
  <diagram id="pxdK78OujvH3wuHM1DEY" name="Page-1">
    <mxGraphModel dx="716" dy="377" grid="1" gridSize="10" guides="1" tooltips="1" connect="1" arrows="1" fold="1" page="1" pageScale="1" pageWidth="827" pageHeight="1169" math="0" shadow="0">
      <root>
        <mxCell id="0" />
        <mxCell id="1" parent="0" />
        <mxCell id="coa34Xsyf27S1aQ8bCPp-1" value="" style="rounded=0;whiteSpace=wrap;html=1;" vertex="1" parent="1">
          <mxGeometry x="130" y="230" width="120" height="60" as="geometry" />
        </mxCell>
        <mxCell id="coa34Xsyf27S1aQ8bCPp-2" value="&lt;h2&gt;&lt;font style=&quot;font-size: 20px&quot;&gt;X=VX&lt;/font&gt;&lt;/h2&gt;" style="text;html=1;strokeColor=none;fillColor=none;align=center;verticalAlign=middle;whiteSpace=wrap;rounded=0;fontFamily=Times New Roman;fontStyle=3;fontSize=12;" vertex="1" parent="1">
          <mxGeometry x="155" y="247.5" width="70" height="25" as="geometry" />
        </mxCell>
        <mxCell id="coa34Xsyf27S1aQ8bCPp-3" value="" style="endArrow=none;html=1;rounded=0;fontFamily=Times New Roman;fontSize=20;" edge="1" parent="1">
          <mxGeometry width="50" height="50" relative="1" as="geometry">
            <mxPoint x="80" y="240" as="sourcePoint" />
            <mxPoint x="130" y="240" as="targetPoint" />
          </mxGeometry>
        </mxCell>
        <mxCell id="coa34Xsyf27S1aQ8bCPp-4" value="" style="endArrow=none;html=1;rounded=0;fontFamily=Times New Roman;fontSize=20;" edge="1" parent="1">
          <mxGeometry width="50" height="50" relative="1" as="geometry">
            <mxPoint x="80" y="250" as="sourcePoint" />
            <mxPoint x="130" y="250" as="targetPoint" />
          </mxGeometry>
        </mxCell>
        <mxCell id="coa34Xsyf27S1aQ8bCPp-5" value="" style="endArrow=none;html=1;rounded=0;fontFamily=Times New Roman;fontSize=20;" edge="1" parent="1">
          <mxGeometry width="50" height="50" relative="1" as="geometry">
            <mxPoint x="80" y="280" as="sourcePoint" />
            <mxPoint x="130" y="280" as="targetPoint" />
          </mxGeometry>
        </mxCell>
        <mxCell id="coa34Xsyf27S1aQ8bCPp-6" value="" style="rounded=0;whiteSpace=wrap;html=1;" vertex="1" parent="1">
          <mxGeometry x="290" y="230" width="120" height="60" as="geometry" />
        </mxCell>
        <mxCell id="coa34Xsyf27S1aQ8bCPp-7" value="&lt;i&gt;&lt;b&gt;Y=HX+N&lt;/b&gt;&lt;/i&gt;" style="text;html=1;strokeColor=none;fillColor=none;align=center;verticalAlign=middle;whiteSpace=wrap;rounded=0;fontFamily=Times New Roman;fontSize=20;" vertex="1" parent="1">
          <mxGeometry x="320" y="242.5" width="60" height="30" as="geometry" />
        </mxCell>
        <mxCell id="coa34Xsyf27S1aQ8bCPp-8" value="" style="endArrow=classic;html=1;rounded=0;fontFamily=Times New Roman;fontSize=20;" edge="1" parent="1">
          <mxGeometry width="50" height="50" relative="1" as="geometry">
            <mxPoint x="250" y="240" as="sourcePoint" />
            <mxPoint x="290" y="240" as="targetPoint" />
          </mxGeometry>
        </mxCell>
        <mxCell id="coa34Xsyf27S1aQ8bCPp-10" value="" style="endArrow=classic;html=1;rounded=0;fontFamily=Times New Roman;fontSize=20;" edge="1" parent="1">
          <mxGeometry width="50" height="50" relative="1" as="geometry">
            <mxPoint x="250" y="247.5" as="sourcePoint" />
            <mxPoint x="290" y="247.5" as="targetPoint" />
          </mxGeometry>
        </mxCell>
        <mxCell id="coa34Xsyf27S1aQ8bCPp-11" value="" style="endArrow=classic;html=1;rounded=0;fontFamily=Times New Roman;fontSize=20;" edge="1" parent="1">
          <mxGeometry width="50" height="50" relative="1" as="geometry">
            <mxPoint x="250" y="280" as="sourcePoint" />
            <mxPoint x="290" y="280" as="targetPoint" />
          </mxGeometry>
        </mxCell>
        <mxCell id="coa34Xsyf27S1aQ8bCPp-12" value="" style="rounded=0;whiteSpace=wrap;html=1;" vertex="1" parent="1">
          <mxGeometry x="450" y="230" width="120" height="60" as="geometry" />
        </mxCell>
        <mxCell id="coa34Xsyf27S1aQ8bCPp-13" value="&lt;i&gt;&lt;b&gt;Y=U&lt;sup&gt;H&lt;/sup&gt;Y&lt;/b&gt;&lt;/i&gt;" style="text;html=1;strokeColor=none;fillColor=none;align=center;verticalAlign=middle;whiteSpace=wrap;rounded=0;fontFamily=Times New Roman;fontSize=20;" vertex="1" parent="1">
          <mxGeometry x="480" y="242.5" width="60" height="30" as="geometry" />
        </mxCell>
        <mxCell id="coa34Xsyf27S1aQ8bCPp-15" value="" style="endArrow=classic;html=1;rounded=0;fontFamily=Times New Roman;fontSize=20;" edge="1" parent="1">
          <mxGeometry width="50" height="50" relative="1" as="geometry">
            <mxPoint x="410" y="240" as="sourcePoint" />
            <mxPoint x="450" y="240" as="targetPoint" />
          </mxGeometry>
        </mxCell>
        <mxCell id="coa34Xsyf27S1aQ8bCPp-16" value="" style="endArrow=classic;html=1;rounded=0;fontFamily=Times New Roman;fontSize=20;" edge="1" parent="1">
          <mxGeometry width="50" height="50" relative="1" as="geometry">
            <mxPoint x="410" y="247.5" as="sourcePoint" />
            <mxPoint x="450" y="247.5" as="targetPoint" />
          </mxGeometry>
        </mxCell>
        <mxCell id="coa34Xsyf27S1aQ8bCPp-17" value="" style="endArrow=classic;html=1;rounded=0;fontFamily=Times New Roman;fontSize=20;" edge="1" parent="1">
          <mxGeometry width="50" height="50" relative="1" as="geometry">
            <mxPoint x="410" y="280" as="sourcePoint" />
            <mxPoint x="450" y="280" as="targetPoint" />
          </mxGeometry>
        </mxCell>
        <mxCell id="coa34Xsyf27S1aQ8bCPp-18" value="" style="endArrow=classic;html=1;rounded=0;fontFamily=Times New Roman;fontSize=20;" edge="1" parent="1">
          <mxGeometry width="50" height="50" relative="1" as="geometry">
            <mxPoint x="570" y="240" as="sourcePoint" />
            <mxPoint x="610" y="240" as="targetPoint" />
          </mxGeometry>
        </mxCell>
        <mxCell id="coa34Xsyf27S1aQ8bCPp-19" value="" style="endArrow=classic;html=1;rounded=0;fontFamily=Times New Roman;fontSize=20;" edge="1" parent="1">
          <mxGeometry width="50" height="50" relative="1" as="geometry">
            <mxPoint x="570" y="247.5" as="sourcePoint" />
            <mxPoint x="610" y="247.5" as="targetPoint" />
          </mxGeometry>
        </mxCell>
        <mxCell id="coa34Xsyf27S1aQ8bCPp-20" value="" style="endArrow=classic;html=1;rounded=0;fontFamily=Times New Roman;fontSize=20;" edge="1" parent="1">
          <mxGeometry width="50" height="50" relative="1" as="geometry">
            <mxPoint x="570" y="280" as="sourcePoint" />
            <mxPoint x="610" y="280" as="targetPoint" />
          </mxGeometry>
        </mxCell>
      </root>
    </mxGraphModel>
  </diagram>
</mxfile>
